<svg xmlns="http://www.w3.org/2000/svg" data-name="Layer 1" viewBox="0 0 100 100" x="0px" y="0px">
    <path
        d="M86.84,57.61c0-3.21-1.58-6.05-4-7.81V27.86c0-3.48-3.28-6.32-7.31-6.32H22.15c-4.03,0-7.31,2.83-7.31,6.32v21.94c-2.42,1.76-4,4.6-4,7.81v18.35h11.5v4h4v-4h46.67v4h4v-4h9.83v-18.35ZM18.84,27.86c0-1.25,1.52-2.32,3.31-2.32h53.38c1.8,0,3.31,1.06,3.31,2.32v20.25c-.54-.09-1.09-.15-1.65-.15h-4.64c.5-.9,.79-1.93,.79-3.02v-3.57c0-3.43-2.79-6.22-6.22-6.22h-13.57c-1.89,0-3.58,.85-4.72,2.18-1.14-1.33-2.83-2.18-4.72-2.18h-13.57c-3.43,0-6.22,2.79-6.22,6.22v3.57c0,1.1,.29,2.13,.79,3.02h-4.64c-.56,0-1.11,.06-1.65,.15V27.86Zm9.5,17.08v-3.57c0-1.22,.99-2.22,2.22-2.22h13.57c1.22,0,2.22,1,2.22,2.22v3.57c0,1.22-.99,2.22-2.22,2.22h-13.57c-1.22,0-2.22-.99-2.22-2.22Zm23,0v-3.57c0-1.22,.99-2.22,2.22-2.22h13.57c1.22,0,2.22,1,2.22,2.22v3.57c0,1.22-.99,2.22-2.22,2.22h-13.57c-1.22,0-2.22-.99-2.22-2.22Zm31.5,27.02H14.84v-14.35c0-3.11,2.53-5.65,5.65-5.65h56.7c3.11,0,5.65,2.53,5.65,5.65v14.35Z" />

</svg>