<svg width="100" height="100" viewBox="0 0 100 100" fill="none" xmlns="http://www.w3.org/2000/svg">
<path fill-rule="evenodd" clip-rule="evenodd" d="M4 60V100H96V60H98C98.6667 60 100 59.6 100 58V50C100 49.3333 99.6 48 98 48H95C95.3333 46 92.5 41 88 40V38H84V40C81.5 40.8333 76.4 43.6 76 48H2C1.33333 48 0 48.4 0 50V58C0 58.6667 0.4 60 2 60H4ZM4 52V56H96V52H4ZM8 96V60H92V96H8ZM86 43.5002C88.5 43.5 89.8266 44.8949 92 47.9998H80C81.0198 45.9602 83.1878 43.3309 86 43.5002Z" fill="black"/>
<path d="M34.5 37.5L34 46H30V36C32.8 29.2 38.1667 26.5 40.5 26H57.5C65.5 26 69.1667 33.6667 70 37.5V46H66C66 44.3333 65.5 39.8 65.5 37C65.5 34.2141 61.3752 31.8572 59.0354 30.5202L59 30.5H40.5C38.1 30.5 35.8333 35 34.5 37.5Z" fill="black"/>
<path fill-rule="evenodd" clip-rule="evenodd" d="M50 24C56.6274 24 62 18.6274 62 12C62 5.37258 56.6274 0 50 0C43.3726 0 38 5.37258 38 12C38 18.6274 43.3726 24 50 24ZM50 21C54.9706 21 59 16.9706 59 12C59 7.02944 54.9706 3 50 3C45.0294 3 41 7.02944 41 12C41 16.9706 45.0294 21 50 21Z" fill="black"/>
</svg>
