<svg width="100" height="100" viewBox="0 0 100 100" fill="none" xmlns="http://www.w3.org/2000/svg">
<path fill-rule="evenodd" clip-rule="evenodd" d="M45.8335 25C38.93 25 33.3335 30.5965 33.3335 37.5V70.8333C33.3335 73.1346 35.199 75 37.5002 75C39.8014 75 41.6668 73.1346 41.6668 70.8333V58.3333H50.0189C50.8956 58.3279 51.7752 58.225 52.6385 58.0812C54.0831 57.8404 56.0731 57.3508 58.1135 56.3308C60.1706 55.3021 62.3539 53.6942 64.0139 51.2042C65.6914 48.6879 66.6668 45.5204 66.6668 41.6665C66.6668 37.8125 65.6914 34.6449 64.0139 32.1288C62.3539 29.6388 60.1702 28.0308 58.1135 27.0024C56.0731 25.9822 54.0831 25.4928 52.6385 25.252C51.7702 25.1073 50.8822 25.0004 50.0002 25H45.8335ZM41.6668 50V37.5C41.6668 35.1988 43.5322 33.3333 45.8335 33.3333L50.0018 33.3341C51.5014 33.3841 53.0493 33.7872 54.3868 34.456C55.4552 34.9901 56.3964 35.7258 57.0802 36.7514C57.7464 37.7509 58.3335 39.2707 58.3335 41.6665C58.3335 44.0625 57.7464 45.5821 57.0802 46.5817C56.3964 47.6075 55.4547 48.3429 54.3868 48.8771C53.0493 49.5458 51.5014 49.9492 50.0014 49.9992L41.6668 50Z" fill="#0F0F0F"/>
<path fill-rule="evenodd" clip-rule="evenodd" d="M83.3332 4.16669C90.2369 4.16669 95.8332 9.76315 95.8332 16.6667V83.3334C95.8332 90.2371 90.2369 95.8334 83.3332 95.8334H16.6665C9.76296 95.8334 4.1665 90.2371 4.1665 83.3334V16.6667C4.1665 9.76315 9.76296 4.16669 16.6665 4.16669H83.3332ZM83.3332 12.5C85.6344 12.5 87.4998 14.3655 87.4998 16.6667V83.3334C87.4998 85.6346 85.6344 87.5 83.3332 87.5H16.6665C14.3653 87.5 12.4998 85.6346 12.4998 83.3334V16.6667C12.4998 14.3655 14.3653 12.5 16.6665 12.5H83.3332Z" fill="#0F0F0F"/>
</svg>
