<svg width="100" height="100" viewBox="0 0 100 100" fill="none" xmlns="http://www.w3.org/2000/svg">
<path d="M94.462 82H62V90H94.794C97.49 90 98 87.65 98 87.65V85.71C98 85.71 97.976 82 94.462 82ZM89.972 80.42C94.4 80.42 98 76.816 98 72.376C98 67.922 94.4 64.33 89.972 64.33C85.55 64.33 81.96 67.924 81.96 72.376C81.96 76.814 85.55 80.42 89.972 80.42ZM73.064 80C77.276 80 80.664 77.032 80.664 72.826C80.662 68.628 77.262 66.426 73.082 66.394L62 67.798V80H73.064ZM37.046 27.866C41.964 27.866 45.942 23.866 45.942 18.932C45.942 13.998 41.964 10 37.046 10C32.132 10 28.148 13.998 28.148 18.932C28.148 23.866 32.132 27.866 37.046 27.866ZM27.962 56.778L27.882 56.662L23.85 47.274L23.844 66H35.894L38.526 63.2L31.388 60.452C29.696 59.816 28.494 58.376 27.962 56.778ZM30.516 55.936C30.906 56.812 31.628 57.522 32.536 57.848L46.29 62.946C48.05 63.724 50.106 62.916 50.878 61.15C51.65 59.372 50.848 57.302 49.086 56.528L36.396 51.736L32.476 42.334L35.032 41.382L38.354 49.438L48 53.014V43.17L53.12 46.216L55.672 59.072C56.298 60.908 58.28 61.874 60.108 61.24C61.918 60.612 62.88 58.61 62.258 56.782L59.398 44.4C59.21 43.706 58.812 43.1 58.274 42.646C56.808 41.022 49.394 32.732 48.866 32.178C48.092 31.402 46.322 30 42.978 30H30.978C24.158 30 22.846 36.96 24.24 40.5L30.516 55.936ZM60 68H5.934C3.966 68 2 69.11 2 71.552V90H60V68Z" fill="black"/>
</svg>
