<svg width="24" height="20" viewBox="0 0 24 20" fill="none" xmlns="http://www.w3.org/2000/svg">
<path d="M21.332 0.560242H2.66536C1.38203 0.560242 0.343698 1.61024 0.343698 2.89358L0.332031 16.8936C0.332031 18.1769 1.38203 19.2269 2.66536 19.2269H21.332C22.6154 19.2269 23.6654 18.1769 23.6654 16.8936V2.89358C23.6654 1.61024 22.6154 0.560242 21.332 0.560242ZM20.8654 5.51858L12.617 10.6752C12.2437 10.9086 11.7537 10.9086 11.3804 10.6752L3.13203 5.51858C3.01505 5.4529 2.9126 5.36418 2.8309 5.25777C2.7492 5.15136 2.68994 5.02948 2.6567 4.89951C2.62347 4.76953 2.61695 4.63417 2.63755 4.5016C2.65814 4.36903 2.70542 4.24202 2.77653 4.12826C2.84763 4.0145 2.94108 3.91634 3.05121 3.83974C3.16135 3.76313 3.28588 3.70967 3.41728 3.68259C3.54867 3.65551 3.68419 3.65537 3.81564 3.68218C3.9471 3.70899 4.07174 3.7622 4.18203 3.83858L11.9987 8.72691L19.8154 3.83858C19.9257 3.7622 20.0503 3.70899 20.1818 3.68218C20.3132 3.65537 20.4487 3.65551 20.5801 3.68259C20.7115 3.70967 20.836 3.76313 20.9462 3.83974C21.0563 3.91634 21.1498 4.0145 21.2209 4.12826C21.292 4.24202 21.3393 4.36903 21.3598 4.5016C21.3804 4.63417 21.3739 4.76953 21.3407 4.89951C21.3075 5.02948 21.2482 5.15136 21.1665 5.25777C21.0848 5.36418 20.9823 5.4529 20.8654 5.51858Z" fill="#002349"/>
</svg>
