<svg width="21" height="21" viewBox="0 0 21 21" fill="none" xmlns="http://www.w3.org/2000/svg">
    <g clip-path="url(#clip0_1465_77942)">
        <path
            d="M18.736 5.83301H2.26268C1.97183 5.83301 1.69289 5.94855 1.48722 6.15421C1.28156 6.35988 1.16602 6.63882 1.16602 6.92967V17.5697C1.16602 17.8605 1.28156 18.1395 1.48722 18.3451C1.69289 18.5508 1.97183 18.6663 2.26268 18.6663H18.736C19.0269 18.6663 19.3058 18.5508 19.5115 18.3451C19.7171 18.1395 19.8327 17.8605 19.8327 17.5697V6.92967C19.8327 6.63882 19.7171 6.35988 19.5115 6.15421C19.3058 5.94855 19.0269 5.83301 18.736 5.83301ZM18.666 17.4997H2.33268V6.99967H18.666V17.4997Z"
            fill="#dddddd" />
        <path
            d="M17.582 1.75033C17.582 1.59562 17.5206 1.44724 17.4112 1.33785C17.3018 1.22845 17.1534 1.16699 16.9987 1.16699H4.16536C4.01065 1.16699 3.86228 1.22845 3.75289 1.33785C3.64349 1.44724 3.58203 1.59562 3.58203 1.75033V2.33366H17.582V1.75033Z"
            fill="#dddddd" />
        <path
            d="M18.7376 4.08333C18.7376 3.92862 18.6762 3.78025 18.5668 3.67085C18.4574 3.56146 18.309 3.5 18.1543 3.5H2.98763C2.83292 3.5 2.68455 3.56146 2.57515 3.67085C2.46576 3.78025 2.4043 3.92862 2.4043 4.08333V4.66667H18.7376V4.08333Z"
            fill="#dddddd" />
        <path
            d="M7.47846 15.6272C7.64013 15.732 7.82829 15.7887 8.02096 15.7905C8.15981 15.7902 8.29701 15.7604 8.42346 15.703L14.1226 13.1597C14.2988 13.0831 14.4488 12.9568 14.5541 12.7961C14.6595 12.6355 14.7156 12.4476 14.7156 12.2555C14.7156 12.0634 14.6595 11.8755 14.5541 11.7149C14.4488 11.5543 14.2988 11.4279 14.1226 11.3513L8.42346 8.80802C8.27265 8.74104 8.10751 8.71275 7.943 8.72573C7.77849 8.7387 7.61982 8.79252 7.48137 8.88231C7.34292 8.9721 7.22907 9.09502 7.15012 9.23993C7.07118 9.38484 7.02965 9.54716 7.0293 9.71218V14.7988C7.02959 14.9633 7.0708 15.1252 7.14921 15.2698C7.22762 15.4144 7.34077 15.5372 7.47846 15.6272ZM7.84596 9.71218C7.84578 9.68288 7.85321 9.65404 7.86753 9.62847C7.88184 9.60291 7.90255 9.5815 7.92763 9.56635C7.95817 9.5579 7.99043 9.5579 8.02096 9.56635C8.044 9.5611 8.06793 9.5611 8.09096 9.56635L13.7901 12.1038C13.8223 12.117 13.8496 12.1397 13.8684 12.169C13.8872 12.1982 13.8965 12.2325 13.8951 12.2672C13.8962 12.3011 13.8866 12.3345 13.8678 12.3627C13.849 12.3909 13.8218 12.4126 13.7901 12.4247L8.09096 14.968C8.06613 14.9824 8.03797 14.9899 8.0093 14.9899C7.98063 14.9899 7.95246 14.9824 7.92763 14.968C7.90329 14.9521 7.88315 14.9305 7.86894 14.9051C7.85472 14.8797 7.84684 14.8513 7.84596 14.8222V9.71218Z"
            fill="#dddddd" />
    </g>
    <defs>
        <clipPath id="clip0_1465_77942">
            <rect width="21" height="21" fill="white" />
        </clipPath>
    </defs>
</svg>