<svg width="22" height="22" viewBox="0 0 22 22" fill="none" xmlns="http://www.w3.org/2000/svg">
<path d="M4.72333 9.48189C6.40333 12.7836 9.11 15.4786 12.4117 17.1702L14.9783 14.6036C15.2933 14.2886 15.76 14.1836 16.1683 14.3236C17.475 14.7552 18.8867 14.9886 20.3333 14.9886C20.975 14.9886 21.5 15.5136 21.5 16.1552V20.2269C21.5 20.8686 20.975 21.3936 20.3333 21.3936C9.37833 21.3936 0.5 12.5152 0.5 1.56022C0.5 0.918555 1.025 0.393555 1.66667 0.393555H5.75C6.39167 0.393555 6.91667 0.918555 6.91667 1.56022C6.91667 3.01855 7.15 4.41855 7.58167 5.72522C7.71 6.13355 7.61667 6.58855 7.29 6.91522L4.72333 9.48189Z" fill="#002349"/>
</svg>
