<svg width="22" height="22" viewBox="0 0 22 22" fill="none" xmlns="http://www.w3.org/2000/svg">
<path fill-rule="evenodd" clip-rule="evenodd" d="M11.4658 21.5129H11.4615C9.71155 21.5123 7.99203 21.0753 6.46481 20.2463L0.921875 21.6934L2.40526 16.3011C1.49023 14.7229 1.00875 12.9328 1.00954 11.0987C1.01183 5.36126 5.70244 0.693359 11.4657 0.693359C14.2629 0.694561 16.8882 1.77826 18.8623 3.74522C20.8364 5.71208 21.923 8.32652 21.9219 11.107C21.9196 16.8431 17.2308 21.5106 11.4658 21.5129ZM6.72208 18.3617L7.03942 18.5491C8.37375 19.3371 9.90329 19.7541 11.4628 19.7547H11.4663C16.2563 19.7547 20.155 15.8747 20.1569 11.1056C20.1578 8.79451 19.2547 6.6215 17.6139 4.98664C15.973 3.35178 13.791 2.451 11.4697 2.4502C6.67596 2.4502 2.77729 6.32985 2.77539 11.0986C2.77472 12.7329 3.23419 14.3244 4.10414 15.7015L4.31077 16.0287L3.43282 19.2204L6.72208 18.3617ZM16.7311 13.5813C16.6658 13.4728 16.4917 13.4077 16.2304 13.2775C15.9692 13.1474 14.6847 12.5185 14.4452 12.4316C14.2057 12.3449 14.0315 12.3015 13.8573 12.5617C13.6832 12.822 13.1825 13.4077 13.0301 13.5813C12.8777 13.7547 12.7253 13.7765 12.4641 13.6463C12.2028 13.5162 11.361 13.2417 10.3631 12.3558C9.58638 11.6663 9.06205 10.8149 8.90964 10.5546C8.75724 10.2943 8.8934 10.1536 9.02419 10.0239C9.14173 9.90741 9.28547 9.72018 9.41609 9.5684C9.54671 9.41662 9.59025 9.30809 9.67735 9.13468C9.76443 8.96107 9.7209 8.80929 9.65557 8.67913C9.59025 8.54898 9.06776 7.26914 8.85005 6.74852C8.63796 6.24151 8.42258 6.31019 8.26222 6.30218C8.11 6.29457 7.93564 6.29297 7.76149 6.29297C7.58733 6.29297 7.30426 6.35805 7.06479 6.61836C6.82532 6.87867 6.15039 7.50773 6.15039 8.78746C6.15039 10.0673 7.08655 11.3037 7.21719 11.4772C7.34781 11.6508 9.05945 14.277 11.6803 15.4033C12.3036 15.6712 12.7903 15.8312 13.1697 15.951C13.7956 16.1489 14.3652 16.121 14.8153 16.054C15.3173 15.9794 16.361 15.4251 16.5788 14.8177C16.7964 14.2103 16.7964 13.6897 16.7311 13.5813Z" fill="#002349"/>
</svg>
